<svg width="1920" height="1080" viewBox="0 0 1920 1080" fill="none" xmlns="http://www.w3.org/2000/svg">
<rect width="1920" height="1080" fill="#101010"/>
<path d="M328.756 518.479C328.756 514.67 327.584 512.131 325.24 510.861C322.994 509.592 319.674 508.957 315.279 508.957H247.311V498.41H315.279C331.295 498.41 339.303 505.1 339.303 518.479C339.303 525.998 337.105 531.418 332.711 534.738C328.316 538.059 322.506 539.719 315.279 539.719H247.311V529.172H315.279C324.264 529.172 328.756 525.607 328.756 518.479ZM241.451 603H230.904V423.703H315.279C321.92 423.703 327.584 425.754 332.271 429.855C336.959 433.859 339.303 438.889 339.303 444.943C339.303 452.951 337.105 458.762 332.711 462.375C328.316 465.891 322.506 467.648 315.279 467.648H247.311V457.102H315.279C324.264 457.102 328.756 453.049 328.756 444.943C328.756 441.623 327.486 439.035 324.947 437.18C322.408 435.227 319.186 434.25 315.279 434.25H241.451V603ZM247.311 478.195H315.279C324.947 478.195 333.102 475.314 339.742 469.553C346.48 463.693 349.85 455.49 349.85 444.943C349.85 436.447 346.334 429.025 339.303 422.678C332.369 416.33 324.361 413.156 315.279 413.156H220.357V603H209.811V402.609H315.279C327.291 402.609 337.789 406.857 346.773 415.354C355.855 423.752 360.396 433.615 360.396 444.943C360.396 453.83 358.297 461.594 354.098 468.234C349.996 474.875 344.43 480.002 337.398 483.615C352.73 489.084 360.396 500.217 360.396 517.014C360.396 530.295 356.002 540.939 347.213 548.947C338.424 556.857 327.779 560.812 315.279 560.812H247.311V550.266H315.279C324.947 550.266 333.102 547.385 339.742 541.623C346.48 535.764 349.85 527.561 349.85 517.014C349.85 509.885 347.311 503.586 342.232 498.117C337.154 492.648 329.684 489.475 319.82 488.596C318.844 488.693 317.33 488.742 315.279 488.742H247.311V478.195ZM381.49 444.943C381.49 458.615 376.656 470.969 366.988 482.004C376.656 492.746 381.49 504.416 381.49 517.014C381.49 529.221 378.414 540.354 372.262 550.412C366.207 560.373 358.102 568.137 347.945 573.703C337.887 579.172 326.998 581.906 315.279 581.906H247.311V571.359H315.279C330.514 571.359 343.6 566.281 354.537 556.125C365.475 545.871 370.943 532.834 370.943 517.014C370.943 511.35 369.479 505.1 366.549 498.264C363.717 491.33 359.762 486.057 354.684 482.443C365.523 472.287 370.943 459.787 370.943 444.943C370.943 430.686 365.377 418.332 354.244 407.883C343.111 397.336 330.123 392.062 315.279 392.062H199.264V603H188.717V381.516H315.279C326.9 381.516 337.789 384.396 347.945 390.158C358.199 395.822 366.354 403.586 372.408 413.449C378.463 423.215 381.49 433.713 381.49 444.943ZM379 482.59C387.691 470.969 392.037 458.42 392.037 444.943C392.037 431.76 388.521 419.504 381.49 408.176C374.557 396.75 365.182 387.717 353.365 381.076C341.549 374.338 328.854 370.969 315.279 370.969H178.17V603H167.623V360.422H315.279C330.709 360.422 345.113 364.23 358.492 371.848C371.969 379.465 382.662 389.816 390.572 402.902C398.58 415.891 402.584 429.904 402.584 444.943C402.584 459.299 398.531 471.896 390.426 482.736C398.531 493.967 402.584 505.393 402.584 517.014C402.584 530.1 400.24 542.111 395.553 553.049C390.865 563.889 384.518 572.922 376.51 580.148C368.6 587.375 359.371 592.99 348.824 596.994C338.277 600.998 327.096 603 315.279 603H247.311V592.453H315.279C325.533 592.453 335.348 590.549 344.723 586.74C354.098 582.834 362.252 577.561 369.186 570.92C376.119 564.279 381.637 556.271 385.738 546.896C389.938 537.521 392.037 527.561 392.037 517.014C392.037 512.326 390.914 506.711 388.668 500.168C386.52 493.527 383.297 487.668 379 482.59ZM531.051 531.809L535.299 521.262H571.334L575.582 531.809H531.051ZM522.848 552.902L526.949 542.355H579.537L584.078 552.902H522.848ZM514.645 573.996L518.746 563.449H587.887L592.281 573.996H514.645ZM428.951 603H417.525L513.473 360.422H524.898L620.699 603H609.42L519.186 374.631L428.951 603ZM520.504 399.68L526.51 413.156L451.51 603H440.23L520.504 399.68ZM532.223 427.512L537.789 442.014L474.361 603H462.936L532.223 427.512ZM543.355 456.516L548.922 471.311L496.92 603H485.641L543.355 456.516ZM688.814 603H677.389L581.588 360.422H592.867L688.814 603ZM570.162 360.422L666.109 603H654.83L558.883 360.422H570.162ZM547.457 360.422L643.404 603H631.979L536.178 360.422H547.457ZM805.27 455.344H787.545C780.025 455.344 774.605 453.439 771.285 449.631C767.965 445.725 766.305 440.598 766.305 434.25C766.305 420.188 776.803 413.156 797.799 413.156C817.525 413.156 832.369 416.086 842.33 421.945L833.834 428.391C826.998 425.266 814.986 423.703 797.799 423.703C789.4 423.703 783.736 424.631 780.807 426.486C777.975 428.342 776.559 430.93 776.559 434.25C776.559 437.57 777.34 440.158 778.902 442.014C780.465 443.869 783.346 444.797 787.545 444.797H805.709C818.893 444.797 830.758 447.043 841.305 451.535C851.949 456.027 860.689 462.18 867.525 469.992C874.361 477.707 879.586 486.643 883.199 496.799C886.812 506.857 888.619 517.648 888.619 529.172C888.619 538.547 887.301 547.434 884.664 555.832C882.027 564.23 878.023 571.945 872.652 578.977C867.379 586.008 860.982 592.111 853.463 597.287C846.041 602.365 837.154 606.32 826.803 609.152C816.549 612.082 805.416 613.547 793.404 613.547C774.557 613.547 756.881 610.666 740.377 604.904C723.971 599.24 710.299 591.281 699.361 581.027L707.857 574.729C717.818 583.713 730.27 590.695 745.211 595.676C760.25 600.559 776.314 603 793.404 603C806.783 603 818.844 601.096 829.586 597.287C840.426 593.381 849.312 588.059 856.246 581.32C863.277 574.582 868.648 566.77 872.359 557.883C876.168 548.996 878.072 539.426 878.072 529.172C878.072 515.598 875.338 503.342 869.869 492.404C864.4 481.369 856.051 472.434 844.82 465.598C833.688 458.762 820.504 455.344 805.27 455.344ZM787.545 465.891H804.244C824.068 465.891 839.547 471.945 850.68 484.055C861.91 496.164 867.525 511.203 867.525 529.172C867.525 547.434 861.031 562.57 848.043 574.582C835.055 586.496 816.842 592.453 793.404 592.453C777.779 592.453 763.18 590.305 749.605 586.008C736.031 581.711 724.752 575.656 715.768 567.844L723.971 561.252C731.979 567.795 742.037 572.873 754.146 576.486C766.354 580.1 779.439 581.906 793.404 581.906C814.01 581.906 829.732 576.975 840.572 567.111C851.51 557.248 856.979 544.602 856.979 529.172C856.979 513.938 852.389 501.34 843.209 491.379C834.127 481.418 821.09 476.438 804.098 476.438H787.545C773.287 476.438 762.594 472.531 755.465 464.719C748.336 456.906 744.771 446.75 744.771 434.25C744.771 421.75 749.166 411.594 757.955 403.781C766.842 395.969 780.123 392.062 797.799 392.062C810.201 392.062 821.725 393.527 832.369 396.457C843.014 399.289 851.803 403.391 858.736 408.762L850.387 415.207C838.18 406.809 820.65 402.609 797.799 402.609C783.053 402.609 772.262 405.539 765.426 411.398C758.688 417.16 755.318 424.777 755.318 434.25C755.318 443.82 757.809 451.486 762.789 457.248C767.867 463.01 776.119 465.891 787.545 465.891ZM787.545 486.984H803.658C817.916 486.984 828.609 490.939 835.738 498.85C842.867 506.76 846.432 516.867 846.432 529.172C846.432 541.672 841.988 551.828 833.102 559.641C824.312 567.453 811.08 571.359 793.404 571.359C781.002 571.359 769.43 569.943 758.688 567.111C748.043 564.182 739.254 560.031 732.32 554.66L740.67 548.215C752.877 556.613 770.455 560.812 793.404 560.812C808.15 560.812 818.893 557.932 825.631 552.17C832.467 546.311 835.885 538.645 835.885 529.172C835.885 519.699 833.346 512.082 828.268 506.32C823.189 500.461 814.938 497.531 803.512 497.531H787.545C767.525 497.531 751.852 491.574 740.523 479.66C729.293 467.648 723.678 452.512 723.678 434.25C723.678 415.988 730.172 400.9 743.16 388.986C756.148 376.975 774.361 370.969 797.799 370.969C813.424 370.969 827.975 373.117 841.451 377.414C855.025 381.711 866.305 387.766 875.289 395.578L867.086 402.17C859.078 395.627 849.02 390.549 836.91 386.936C824.801 383.322 811.764 381.516 797.799 381.516C777.193 381.516 761.422 386.447 750.484 396.311C739.645 406.174 734.225 418.82 734.225 434.25C734.225 449.582 738.814 462.229 747.994 472.189C757.174 482.053 770.357 486.984 787.545 486.984ZM787.545 508.078H803.658C811.178 508.078 816.598 510.031 819.918 513.938C823.238 517.844 824.898 522.922 824.898 529.172C824.898 543.234 814.4 550.266 793.404 550.266C773.58 550.266 758.688 547.336 748.727 541.477L757.223 535.031C764.059 538.156 776.119 539.719 793.404 539.719C801.803 539.719 807.418 538.791 810.25 536.936C813.18 535.08 814.645 532.492 814.645 529.172C814.645 525.949 813.814 523.41 812.154 521.555C810.592 519.602 807.662 518.625 803.365 518.625H787.545C774.068 518.625 761.861 516.428 750.924 512.033C740.084 507.639 731.148 501.584 724.117 493.869C717.184 486.154 711.861 477.219 708.15 467.062C704.439 456.906 702.584 445.969 702.584 434.25C702.584 424.875 703.902 415.988 706.539 407.59C709.176 399.191 713.131 391.477 718.404 384.445C723.775 377.414 730.172 371.359 737.594 366.281C745.113 361.105 754 357.102 764.254 354.27C774.605 351.34 785.787 349.875 797.799 349.875C816.646 349.875 834.273 352.756 850.68 358.518C867.086 364.182 880.758 372.141 891.695 382.395L883.199 388.693C873.238 379.709 860.787 372.775 845.846 367.893C830.904 362.912 814.889 360.422 797.799 360.422C784.42 360.422 772.311 362.375 761.471 366.281C750.729 370.09 741.842 375.363 734.811 382.102C727.877 388.84 722.506 396.652 718.697 405.539C714.986 414.426 713.131 423.996 713.131 434.25C713.131 448.02 715.914 460.422 721.48 471.457C727.047 482.492 735.543 491.379 746.969 498.117C758.395 504.758 771.92 508.078 787.545 508.078ZM1095.16 443.332L1086.52 449.045C1081.25 441.232 1074.36 435.08 1065.87 430.588C1057.47 425.998 1048.34 423.703 1038.47 423.703C1022.46 423.703 1008.79 429.367 997.457 440.695C986.129 452.023 980.465 465.695 980.465 481.711C980.465 497.727 986.129 511.398 997.457 522.727C1008.79 534.055 1022.46 539.719 1038.47 539.719C1048.34 539.719 1057.47 537.424 1065.87 532.834C1074.36 528.244 1081.25 522.043 1086.52 514.23L1095.02 520.383C1088.77 529.562 1080.66 536.838 1070.7 542.209C1060.74 547.58 1050 550.266 1038.47 550.266C1029.2 550.266 1020.31 548.459 1011.81 544.846C1003.41 541.232 996.139 536.35 989.986 530.197C983.834 524.045 978.951 516.77 975.338 508.371C971.725 499.875 969.918 490.988 969.918 481.711C969.918 472.434 971.725 463.596 975.338 455.197C978.951 446.701 983.834 439.377 989.986 433.225C996.139 427.072 1003.41 422.189 1011.81 418.576C1020.31 414.963 1029.2 413.156 1038.47 413.156C1050.09 413.156 1060.88 415.891 1070.85 421.359C1080.81 426.73 1088.91 434.055 1095.16 443.332ZM1112.59 431.32L1103.8 437.033C1096.58 426.486 1087.2 418.137 1075.68 411.984C1064.25 405.734 1051.85 402.609 1038.47 402.609C1024.12 402.609 1010.88 406.174 998.775 413.303C986.666 420.334 977.047 429.904 969.918 442.014C962.887 454.123 959.371 467.355 959.371 481.711C959.371 496.066 962.887 509.299 969.918 521.408C977.047 533.518 986.666 543.137 998.775 550.266C1010.88 557.297 1024.12 560.812 1038.47 560.812C1051.85 560.812 1064.3 557.688 1075.83 551.438C1087.35 545.188 1096.72 536.74 1103.95 526.096L1112.59 532.102C1104.39 544.211 1093.75 553.781 1080.66 560.812C1067.67 567.844 1053.61 571.359 1038.47 571.359C1022.26 571.359 1007.27 567.355 993.502 559.348C979.732 551.34 968.844 540.451 960.836 526.682C952.828 512.912 948.824 497.922 948.824 481.711C948.824 465.5 952.828 450.51 960.836 436.74C968.844 422.971 979.732 412.082 993.502 404.074C1007.27 396.066 1022.26 392.062 1038.47 392.062C1053.61 392.062 1067.67 395.578 1080.66 402.609C1093.75 409.641 1104.39 419.211 1112.59 431.32ZM1130.17 419.602L1121.38 425.314C1112.2 411.838 1100.29 401.193 1085.64 393.381C1071.09 385.471 1055.37 381.516 1038.47 381.516C1024.9 381.516 1011.91 384.152 999.508 389.426C987.105 394.699 976.412 401.828 967.428 410.812C958.541 419.699 951.461 430.344 946.188 442.746C940.914 455.148 938.277 468.137 938.277 481.711C938.277 495.285 940.914 508.273 946.188 520.676C951.461 533.078 958.541 543.771 967.428 552.756C976.412 561.643 987.105 568.723 999.508 573.996C1011.91 579.27 1024.9 581.906 1038.47 581.906C1055.46 581.906 1071.24 577.951 1085.79 570.041C1100.34 562.131 1112.2 551.438 1121.38 537.961L1129.88 544.26C1119.72 559.104 1106.59 570.871 1090.47 579.562C1074.46 588.156 1057.12 592.453 1038.47 592.453C1018.45 592.453 999.947 587.521 982.955 577.658C965.963 567.697 952.486 554.221 942.525 537.229C932.662 520.236 927.73 501.73 927.73 481.711C927.73 461.691 932.662 443.186 942.525 426.193C952.486 409.201 965.963 395.773 982.955 385.91C999.947 375.949 1018.45 370.969 1038.47 370.969C1057.22 370.969 1074.65 375.363 1090.77 384.152C1106.88 392.844 1120.02 404.66 1130.17 419.602ZM1147.46 407.59L1138.67 413.303C1127.54 396.994 1113.13 384.104 1095.46 374.631C1077.88 365.158 1058.88 360.422 1038.47 360.422C1022.07 360.422 1006.34 363.645 991.305 370.09C976.363 376.438 963.473 385.031 952.633 395.871C941.793 406.711 933.15 419.65 926.705 434.689C920.357 449.631 917.184 465.305 917.184 481.711C917.184 498.117 920.357 513.84 926.705 528.879C933.15 543.82 941.793 556.711 952.633 567.551C963.473 578.391 976.363 587.033 991.305 593.479C1006.34 599.826 1022.07 603 1038.47 603C1058.88 603 1077.93 598.215 1095.6 588.645C1113.28 579.074 1127.68 566.135 1138.81 549.826L1147.31 556.271C1135.2 573.85 1119.58 587.814 1100.44 598.166C1081.29 608.42 1060.64 613.547 1038.47 613.547C1020.6 613.547 1003.51 610.031 987.203 603C970.992 596.066 956.979 586.74 945.162 575.021C933.443 563.205 924.068 549.191 917.037 532.98C910.104 516.672 906.637 499.582 906.637 481.711C906.637 463.84 910.104 446.799 917.037 430.588C924.068 414.279 933.443 400.266 945.162 388.547C956.979 376.73 970.992 367.355 987.203 360.422C1003.51 353.391 1020.6 349.875 1038.47 349.875C1060.74 349.875 1081.44 355.051 1100.58 365.402C1119.72 375.754 1135.35 389.816 1147.46 407.59Z" fill="#FF2E2E"/>
<path d="M162.3 759V689H196.5C205.3 689 211.9 690.667 216.3 694C220.767 697.333 223 701.733 223 707.2C223 710.867 222.1 714.067 220.3 716.8C218.5 719.467 216.033 721.533 212.9 723C209.767 724.467 206.167 725.2 202.1 725.2L204 721.1C208.4 721.1 212.3 721.833 215.7 723.3C219.1 724.7 221.733 726.8 223.6 729.6C225.533 732.4 226.5 735.833 226.5 739.9C226.5 745.9 224.133 750.6 219.4 754C214.667 757.333 207.7 759 198.5 759H162.3ZM178.4 746.8H197.3C201.5 746.8 204.667 746.133 206.8 744.8C209 743.4 210.1 741.2 210.1 738.2C210.1 735.267 209 733.1 206.8 731.7C204.667 730.233 201.5 729.5 197.3 729.5H177.2V717.7H194.5C198.433 717.7 201.433 717.033 203.5 715.7C205.633 714.3 206.7 712.2 206.7 709.4C206.7 706.667 205.633 704.633 203.5 703.3C201.433 701.9 198.433 701.2 194.5 701.2H178.4V746.8ZM237.665 759V705.2H253.265V759H237.665ZM245.465 697.7C242.598 697.7 240.265 696.867 238.465 695.2C236.665 693.533 235.765 691.467 235.765 689C235.765 686.533 236.665 684.467 238.465 682.8C240.265 681.133 242.598 680.3 245.465 680.3C248.332 680.3 250.665 681.1 252.465 682.7C254.265 684.233 255.165 686.233 255.165 688.7C255.165 691.3 254.265 693.467 252.465 695.2C250.732 696.867 248.398 697.7 245.465 697.7ZM300.443 704.4C304.71 704.4 308.51 705.267 311.843 707C315.243 708.667 317.91 711.267 319.843 714.8C321.776 718.267 322.743 722.733 322.743 728.2V759H307.143V730.6C307.143 726.267 306.176 723.067 304.243 721C302.376 718.933 299.71 717.9 296.243 717.9C293.776 717.9 291.543 718.433 289.543 719.5C287.61 720.5 286.076 722.067 284.943 724.2C283.876 726.333 283.343 729.067 283.343 732.4V759H267.743V705.2H282.643V720.1L279.843 715.6C281.776 712 284.543 709.233 288.143 707.3C291.743 705.367 295.843 704.4 300.443 704.4ZM369.884 759V748.5L368.884 746.2V727.4C368.884 724.067 367.85 721.467 365.784 719.6C363.784 717.733 360.684 716.8 356.484 716.8C353.617 716.8 350.784 717.267 347.984 718.2C345.25 719.067 342.917 720.267 340.984 721.8L335.384 710.9C338.317 708.833 341.85 707.233 345.984 706.1C350.117 704.967 354.317 704.4 358.584 704.4C366.784 704.4 373.15 706.333 377.684 710.2C382.217 714.067 384.484 720.1 384.484 728.3V759H369.884ZM353.484 759.8C349.284 759.8 345.684 759.1 342.684 757.7C339.684 756.233 337.384 754.267 335.784 751.8C334.184 749.333 333.384 746.567 333.384 743.5C333.384 740.3 334.15 737.5 335.684 735.1C337.284 732.7 339.784 730.833 343.184 729.5C346.584 728.1 351.017 727.4 356.484 727.4H370.784V736.5H358.184C354.517 736.5 351.984 737.1 350.584 738.3C349.25 739.5 348.584 741 348.584 742.8C348.584 744.8 349.35 746.4 350.884 747.6C352.484 748.733 354.65 749.3 357.384 749.3C359.984 749.3 362.317 748.7 364.384 747.5C366.45 746.233 367.95 744.4 368.884 742L371.284 749.2C370.15 752.667 368.084 755.3 365.084 757.1C362.084 758.9 358.217 759.8 353.484 759.8ZM398.602 759V705.2H413.502V720.4L411.402 716C413.002 712.2 415.569 709.333 419.102 707.4C422.636 705.4 426.936 704.4 432.002 704.4V718.8C431.336 718.733 430.736 718.7 430.202 718.7C429.669 718.633 429.102 718.6 428.502 718.6C424.236 718.6 420.769 719.833 418.102 722.3C415.502 724.7 414.202 728.467 414.202 733.6V759H398.602ZM449.934 779.2C447.134 779.2 444.367 778.767 441.634 777.9C438.9 777.033 436.667 775.833 434.934 774.3L440.634 763.2C441.834 764.267 443.2 765.1 444.734 765.7C446.334 766.3 447.9 766.6 449.434 766.6C451.634 766.6 453.367 766.067 454.634 765C455.967 764 457.167 762.3 458.234 759.9L461.034 753.3L462.234 751.6L481.534 705.2H496.534L472.234 762.3C470.5 766.633 468.5 770.033 466.234 772.5C464.034 774.967 461.567 776.7 458.834 777.7C456.167 778.7 453.2 779.2 449.934 779.2ZM459.134 761.1L435.134 705.2H451.234L469.834 750.2L459.134 761.1ZM523.12 759L554.32 689H570.32L601.62 759H584.62L559.02 697.2H565.42L539.72 759H523.12ZM538.72 744L543.02 731.7H579.02L583.42 744H538.72ZM640.482 704.4C644.749 704.4 648.549 705.267 651.882 707C655.282 708.667 657.949 711.267 659.882 714.8C661.815 718.267 662.782 722.733 662.782 728.2V759H647.182V730.6C647.182 726.267 646.215 723.067 644.282 721C642.415 718.933 639.749 717.9 636.282 717.9C633.815 717.9 631.582 718.433 629.582 719.5C627.649 720.5 626.115 722.067 624.982 724.2C623.915 726.333 623.382 729.067 623.382 732.4V759H607.782V705.2H622.682V720.1L619.882 715.6C621.815 712 624.582 709.233 628.182 707.3C631.782 705.367 635.882 704.4 640.482 704.4ZM709.923 759V748.5L708.923 746.2V727.4C708.923 724.067 707.889 721.467 705.823 719.6C703.823 717.733 700.723 716.8 696.523 716.8C693.656 716.8 690.823 717.267 688.023 718.2C685.289 719.067 682.956 720.267 681.023 721.8L675.423 710.9C678.356 708.833 681.889 707.233 686.023 706.1C690.156 704.967 694.356 704.4 698.623 704.4C706.823 704.4 713.189 706.333 717.723 710.2C722.256 714.067 724.523 720.1 724.523 728.3V759H709.923ZM693.523 759.8C689.323 759.8 685.723 759.1 682.723 757.7C679.723 756.233 677.423 754.267 675.823 751.8C674.223 749.333 673.423 746.567 673.423 743.5C673.423 740.3 674.189 737.5 675.723 735.1C677.323 732.7 679.823 730.833 683.223 729.5C686.623 728.1 691.056 727.4 696.523 727.4H710.823V736.5H698.223C694.556 736.5 692.023 737.1 690.623 738.3C689.289 739.5 688.623 741 688.623 742.8C688.623 744.8 689.389 746.4 690.923 747.6C692.523 748.733 694.689 749.3 697.423 749.3C700.023 749.3 702.356 748.7 704.423 747.5C706.489 746.233 707.989 744.4 708.923 742L711.323 749.2C710.189 752.667 708.123 755.3 705.123 757.1C702.123 758.9 698.256 759.8 693.523 759.8ZM738.641 759V684.8H754.241V759H738.641ZM775.52 779.2C772.72 779.2 769.953 778.767 767.22 777.9C764.486 777.033 762.253 775.833 760.52 774.3L766.22 763.2C767.42 764.267 768.786 765.1 770.32 765.7C771.92 766.3 773.486 766.6 775.02 766.6C777.22 766.6 778.953 766.067 780.22 765C781.553 764 782.753 762.3 783.82 759.9L786.62 753.3L787.82 751.6L807.12 705.2H822.12L797.82 762.3C796.086 766.633 794.086 770.033 791.82 772.5C789.62 774.967 787.153 776.7 784.42 777.7C781.753 778.7 778.786 779.2 775.52 779.2ZM784.72 761.1L760.72 705.2H776.82L795.42 750.2L784.72 761.1ZM845.804 759.8C841.204 759.8 836.771 759.267 832.504 758.2C828.304 757.067 824.971 755.667 822.504 754L827.704 742.8C830.171 744.333 833.071 745.6 836.404 746.6C839.804 747.533 843.137 748 846.404 748C850.004 748 852.537 747.567 854.004 746.7C855.537 745.833 856.304 744.633 856.304 743.1C856.304 741.833 855.704 740.9 854.504 740.3C853.371 739.633 851.837 739.133 849.904 738.8C847.971 738.467 845.837 738.133 843.504 737.8C841.237 737.467 838.937 737.033 836.604 736.5C834.271 735.9 832.137 735.033 830.204 733.9C828.271 732.767 826.704 731.233 825.504 729.3C824.371 727.367 823.804 724.867 823.804 721.8C823.804 718.4 824.771 715.4 826.704 712.8C828.704 710.2 831.571 708.167 835.304 706.7C839.037 705.167 843.504 704.4 848.704 704.4C852.371 704.4 856.104 704.8 859.904 705.6C863.704 706.4 866.871 707.567 869.404 709.1L864.204 720.2C861.604 718.667 858.971 717.633 856.304 717.1C853.704 716.5 851.171 716.2 848.704 716.2C845.237 716.2 842.704 716.667 841.104 717.6C839.504 718.533 838.704 719.733 838.704 721.2C838.704 722.533 839.271 723.533 840.404 724.2C841.604 724.867 843.171 725.4 845.104 725.8C847.037 726.2 849.137 726.567 851.404 726.9C853.737 727.167 856.071 727.6 858.404 728.2C860.737 728.8 862.837 729.667 864.704 730.8C866.637 731.867 868.204 733.367 869.404 735.3C870.604 737.167 871.204 739.633 871.204 742.7C871.204 746.033 870.204 749 868.204 751.6C866.204 754.133 863.304 756.133 859.504 757.6C855.771 759.067 851.204 759.8 845.804 759.8ZM880.829 759V705.2H896.429V759H880.829ZM888.629 697.7C885.762 697.7 883.429 696.867 881.629 695.2C879.829 693.533 878.929 691.467 878.929 689C878.929 686.533 879.829 684.467 881.629 682.8C883.429 681.133 885.762 680.3 888.629 680.3C891.496 680.3 893.829 681.1 895.629 682.7C897.429 684.233 898.329 686.233 898.329 688.7C898.329 691.3 897.429 693.467 895.629 695.2C893.896 696.867 891.562 697.7 888.629 697.7ZM929.007 759.8C924.407 759.8 919.974 759.267 915.707 758.2C911.507 757.067 908.174 755.667 905.707 754L910.907 742.8C913.374 744.333 916.274 745.6 919.607 746.6C923.007 747.533 926.34 748 929.607 748C933.207 748 935.74 747.567 937.207 746.7C938.74 745.833 939.507 744.633 939.507 743.1C939.507 741.833 938.907 740.9 937.707 740.3C936.574 739.633 935.04 739.133 933.107 738.8C931.174 738.467 929.04 738.133 926.707 737.8C924.44 737.467 922.14 737.033 919.807 736.5C917.474 735.9 915.34 735.033 913.407 733.9C911.474 732.767 909.907 731.233 908.707 729.3C907.574 727.367 907.007 724.867 907.007 721.8C907.007 718.4 907.974 715.4 909.907 712.8C911.907 710.2 914.774 708.167 918.507 706.7C922.24 705.167 926.707 704.4 931.907 704.4C935.574 704.4 939.307 704.8 943.107 705.6C946.907 706.4 950.074 707.567 952.607 709.1L947.407 720.2C944.807 718.667 942.174 717.633 939.507 717.1C936.907 716.5 934.374 716.2 931.907 716.2C928.44 716.2 925.907 716.667 924.307 717.6C922.707 718.533 921.907 719.733 921.907 721.2C921.907 722.533 922.474 723.533 923.607 724.2C924.807 724.867 926.374 725.4 928.307 725.8C930.24 726.2 932.34 726.567 934.607 726.9C936.94 727.167 939.274 727.6 941.607 728.2C943.94 728.8 946.04 729.667 947.907 730.8C949.84 731.867 951.407 733.367 952.607 735.3C953.807 737.167 954.407 739.633 954.407 742.7C954.407 746.033 953.407 749 951.407 751.6C949.407 754.133 946.507 756.133 942.707 757.6C938.974 759.067 934.407 759.8 929.007 759.8ZM194.2 881V870.5L193.2 868.2V849.4C193.2 846.067 192.167 843.467 190.1 841.6C188.1 839.733 185 838.8 180.8 838.8C177.933 838.8 175.1 839.267 172.3 840.2C169.567 841.067 167.233 842.267 165.3 843.8L159.7 832.9C162.633 830.833 166.167 829.233 170.3 828.1C174.433 826.967 178.633 826.4 182.9 826.4C191.1 826.4 197.467 828.333 202 832.2C206.533 836.067 208.8 842.1 208.8 850.3V881H194.2ZM177.8 881.8C173.6 881.8 170 881.1 167 879.7C164 878.233 161.7 876.267 160.1 873.8C158.5 871.333 157.7 868.567 157.7 865.5C157.7 862.3 158.467 859.5 160 857.1C161.6 854.7 164.1 852.833 167.5 851.5C170.9 850.1 175.333 849.4 180.8 849.4H195.1V858.5H182.5C178.833 858.5 176.3 859.1 174.9 860.3C173.567 861.5 172.9 863 172.9 864.8C172.9 866.8 173.667 868.4 175.2 869.6C176.8 870.733 178.967 871.3 181.7 871.3C184.3 871.3 186.633 870.7 188.7 869.5C190.767 868.233 192.267 866.4 193.2 864L195.6 871.2C194.467 874.667 192.4 877.3 189.4 879.1C186.4 880.9 182.533 881.8 177.8 881.8ZM255.619 826.4C259.885 826.4 263.685 827.267 267.019 829C270.419 830.667 273.085 833.267 275.019 836.8C276.952 840.267 277.919 844.733 277.919 850.2V881H262.319V852.6C262.319 848.267 261.352 845.067 259.419 843C257.552 840.933 254.885 839.9 251.419 839.9C248.952 839.9 246.719 840.433 244.719 841.5C242.785 842.5 241.252 844.067 240.119 846.2C239.052 848.333 238.519 851.067 238.519 854.4V881H222.919V827.2H237.819V842.1L235.019 837.6C236.952 834 239.719 831.233 243.319 829.3C246.919 827.367 251.019 826.4 255.619 826.4ZM315.55 881.8C310.483 881.8 305.917 880.667 301.85 878.4C297.783 876.067 294.55 872.833 292.15 868.7C289.817 864.567 288.65 859.7 288.65 854.1C288.65 848.433 289.817 843.533 292.15 839.4C294.55 835.267 297.783 832.067 301.85 829.8C305.917 827.533 310.483 826.4 315.55 826.4C320.083 826.4 324.05 827.4 327.45 829.4C330.85 831.4 333.483 834.433 335.35 838.5C337.217 842.567 338.15 847.767 338.15 854.1C338.15 860.367 337.25 865.567 335.45 869.7C333.65 873.767 331.05 876.8 327.65 878.8C324.317 880.8 320.283 881.8 315.55 881.8ZM318.25 869C320.783 869 323.083 868.4 325.15 867.2C327.217 866 328.85 864.3 330.05 862.1C331.317 859.833 331.95 857.167 331.95 854.1C331.95 850.967 331.317 848.3 330.05 846.1C328.85 843.9 327.217 842.2 325.15 841C323.083 839.8 320.783 839.2 318.25 839.2C315.65 839.2 313.317 839.8 311.25 841C309.183 842.2 307.517 843.9 306.25 846.1C305.05 848.3 304.45 850.967 304.45 854.1C304.45 857.167 305.05 859.833 306.25 862.1C307.517 864.3 309.183 866 311.25 867.2C313.317 868.4 315.65 869 318.25 869ZM332.35 881V870L332.65 854L331.65 838.1V806.8H347.25V881H332.35ZM414.109 882.2C408.509 882.2 403.142 881.467 398.009 880C392.875 878.467 388.742 876.5 385.609 874.1L391.109 861.9C394.109 864.033 397.642 865.8 401.709 867.2C405.842 868.533 410.009 869.2 414.209 869.2C417.409 869.2 419.975 868.9 421.909 868.3C423.909 867.633 425.375 866.733 426.309 865.6C427.242 864.467 427.709 863.167 427.709 861.7C427.709 859.833 426.975 858.367 425.509 857.3C424.042 856.167 422.109 855.267 419.709 854.6C417.309 853.867 414.642 853.2 411.709 852.6C408.842 851.933 405.942 851.133 403.009 850.2C400.142 849.267 397.509 848.067 395.109 846.6C392.709 845.133 390.742 843.2 389.209 840.8C387.742 838.4 387.009 835.333 387.009 831.6C387.009 827.6 388.075 823.967 390.209 820.7C392.409 817.367 395.675 814.733 400.009 812.8C404.409 810.8 409.909 809.8 416.509 809.8C420.909 809.8 425.242 810.333 429.509 811.4C433.775 812.4 437.542 813.933 440.809 816L435.809 828.3C432.542 826.433 429.275 825.067 426.009 824.2C422.742 823.267 419.542 822.8 416.409 822.8C413.275 822.8 410.709 823.167 408.709 823.9C406.709 824.633 405.275 825.6 404.409 826.8C403.542 827.933 403.109 829.267 403.109 830.8C403.109 832.6 403.842 834.067 405.309 835.2C406.775 836.267 408.709 837.133 411.109 837.8C413.509 838.467 416.142 839.133 419.009 839.8C421.942 840.467 424.842 841.233 427.709 842.1C430.642 842.967 433.309 844.133 435.709 845.6C438.109 847.067 440.042 849 441.509 851.4C443.042 853.8 443.809 856.833 443.809 860.5C443.809 864.433 442.709 868.033 440.509 871.3C438.309 874.567 435.009 877.2 430.609 879.2C426.275 881.2 420.775 882.2 414.109 882.2ZM480.478 881.8C474.345 881.8 468.945 880.6 464.278 878.2C459.678 875.8 456.111 872.533 453.578 868.4C451.045 864.2 449.778 859.433 449.778 854.1C449.778 848.7 451.011 843.933 453.478 839.8C456.011 835.6 459.445 832.333 463.778 830C468.111 827.6 473.011 826.4 478.478 826.4C483.745 826.4 488.478 827.533 492.678 829.8C496.945 832 500.311 835.2 502.778 839.4C505.245 843.533 506.478 848.5 506.478 854.3C506.478 854.9 506.445 855.6 506.378 856.4C506.311 857.133 506.245 857.833 506.178 858.5H462.478V849.4H497.978L491.978 852.1C491.978 849.3 491.411 846.867 490.278 844.8C489.145 842.733 487.578 841.133 485.578 840C483.578 838.8 481.245 838.2 478.578 838.2C475.911 838.2 473.545 838.8 471.478 840C469.478 841.133 467.911 842.767 466.778 844.9C465.645 846.967 465.078 849.433 465.078 852.3V854.7C465.078 857.633 465.711 860.233 466.978 862.5C468.311 864.7 470.145 866.4 472.478 867.6C474.878 868.733 477.678 869.3 480.878 869.3C483.745 869.3 486.245 868.867 488.378 868C490.578 867.133 492.578 865.833 494.378 864.1L502.678 873.1C500.211 875.9 497.111 878.067 493.378 879.6C489.645 881.067 485.345 881.8 480.478 881.8ZM542.864 881.8C537.064 881.8 531.897 880.633 527.364 878.3C522.831 875.9 519.264 872.6 516.664 868.4C514.131 864.2 512.864 859.433 512.864 854.1C512.864 848.7 514.131 843.933 516.664 839.8C519.264 835.6 522.831 832.333 527.364 830C531.897 827.6 537.064 826.4 542.864 826.4C548.531 826.4 553.464 827.6 557.664 830C561.864 832.333 564.964 835.7 566.964 840.1L554.864 846.6C553.464 844.067 551.697 842.2 549.564 841C547.497 839.8 545.231 839.2 542.764 839.2C540.097 839.2 537.697 839.8 535.564 841C533.431 842.2 531.731 843.9 530.464 846.1C529.264 848.3 528.664 850.967 528.664 854.1C528.664 857.233 529.264 859.9 530.464 862.1C531.731 864.3 533.431 866 535.564 867.2C537.697 868.4 540.097 869 542.764 869C545.231 869 547.497 868.433 549.564 867.3C551.697 866.1 553.464 864.2 554.864 861.6L566.964 868.2C564.964 872.533 561.864 875.9 557.664 878.3C553.464 880.633 548.531 881.8 542.864 881.8ZM598.646 881.8C594.179 881.8 590.179 880.933 586.646 879.2C583.179 877.467 580.479 874.833 578.546 871.3C576.613 867.7 575.646 863.133 575.646 857.6V827.2H591.246V855.3C591.246 859.767 592.179 863.067 594.046 865.2C595.979 867.267 598.679 868.3 602.146 868.3C604.546 868.3 606.679 867.8 608.546 866.8C610.413 865.733 611.879 864.133 612.946 862C614.013 859.8 614.546 857.067 614.546 853.8V827.2H630.146V881H615.346V866.2L618.046 870.5C616.246 874.233 613.579 877.067 610.046 879C606.579 880.867 602.779 881.8 598.646 881.8ZM644.598 881V827.2H659.498V842.4L657.398 838C658.998 834.2 661.565 831.333 665.098 829.4C668.632 827.4 672.932 826.4 677.998 826.4V840.8C677.332 840.733 676.732 840.7 676.198 840.7C675.665 840.633 675.098 840.6 674.498 840.6C670.232 840.6 666.765 841.833 664.098 844.3C661.498 846.7 660.198 850.467 660.198 855.6V881H644.598ZM713.584 881.8C707.45 881.8 702.05 880.6 697.384 878.2C692.784 875.8 689.217 872.533 686.684 868.4C684.15 864.2 682.884 859.433 682.884 854.1C682.884 848.7 684.117 843.933 686.584 839.8C689.117 835.6 692.55 832.333 696.884 830C701.217 827.6 706.117 826.4 711.584 826.4C716.85 826.4 721.584 827.533 725.784 829.8C730.05 832 733.417 835.2 735.884 839.4C738.35 843.533 739.584 848.5 739.584 854.3C739.584 854.9 739.55 855.6 739.484 856.4C739.417 857.133 739.35 857.833 739.284 858.5H695.584V849.4H731.084L725.084 852.1C725.084 849.3 724.517 846.867 723.384 844.8C722.25 842.733 720.684 841.133 718.684 840C716.684 838.8 714.35 838.2 711.684 838.2C709.017 838.2 706.65 838.8 704.584 840C702.584 841.133 701.017 842.767 699.884 844.9C698.75 846.967 698.184 849.433 698.184 852.3V854.7C698.184 857.633 698.817 860.233 700.084 862.5C701.417 864.7 703.25 866.4 705.584 867.6C707.984 868.733 710.784 869.3 713.984 869.3C716.85 869.3 719.35 868.867 721.484 868C723.684 867.133 725.684 865.833 727.484 864.1L735.784 873.1C733.317 875.9 730.217 878.067 726.484 879.6C722.75 881.067 718.45 881.8 713.584 881.8ZM812.89 882.2C807.49 882.2 802.457 881.333 797.79 879.6C793.19 877.8 789.19 875.267 785.79 872C782.39 868.733 779.723 864.9 777.79 860.5C775.923 856.1 774.99 851.267 774.99 846C774.99 840.733 775.923 835.9 777.79 831.5C779.723 827.1 782.39 823.267 785.79 820C789.257 816.733 793.29 814.233 797.89 812.5C802.49 810.7 807.523 809.8 812.99 809.8C819.057 809.8 824.523 810.867 829.39 813C834.323 815.067 838.457 818.133 841.79 822.2L831.39 831.8C828.99 829.067 826.323 827.033 823.39 825.7C820.457 824.3 817.257 823.6 813.79 823.6C810.523 823.6 807.523 824.133 804.79 825.2C802.057 826.267 799.69 827.8 797.69 829.8C795.69 831.8 794.123 834.167 792.99 836.9C791.923 839.633 791.39 842.667 791.39 846C791.39 849.333 791.923 852.367 792.99 855.1C794.123 857.833 795.69 860.2 797.69 862.2C799.69 864.2 802.057 865.733 804.79 866.8C807.523 867.867 810.523 868.4 813.79 868.4C817.257 868.4 820.457 867.733 823.39 866.4C826.323 865 828.99 862.9 831.39 860.1L841.79 869.7C838.457 873.767 834.323 876.867 829.39 879C824.523 881.133 819.023 882.2 812.89 882.2ZM875.374 881.8C869.641 881.8 864.541 880.6 860.074 878.2C855.674 875.8 852.174 872.533 849.574 868.4C847.041 864.2 845.774 859.433 845.774 854.1C845.774 848.7 847.041 843.933 849.574 839.8C852.174 835.6 855.674 832.333 860.074 830C864.541 827.6 869.641 826.4 875.374 826.4C881.041 826.4 886.108 827.6 890.574 830C895.041 832.333 898.541 835.567 901.074 839.7C903.608 843.833 904.874 848.633 904.874 854.1C904.874 859.433 903.608 864.2 901.074 868.4C898.541 872.533 895.041 875.8 890.574 878.2C886.108 880.6 881.041 881.8 875.374 881.8ZM875.374 869C877.974 869 880.308 868.4 882.374 867.2C884.441 866 886.074 864.3 887.274 862.1C888.474 859.833 889.074 857.167 889.074 854.1C889.074 850.967 888.474 848.3 887.274 846.1C886.074 843.9 884.441 842.2 882.374 841C880.308 839.8 877.974 839.2 875.374 839.2C872.774 839.2 870.441 839.8 868.374 841C866.308 842.2 864.641 843.9 863.374 846.1C862.174 848.3 861.574 850.967 861.574 854.1C861.574 857.167 862.174 859.833 863.374 862.1C864.641 864.3 866.308 866 868.374 867.2C870.441 868.4 872.774 869 875.374 869ZM938.402 881.8C933.335 881.8 928.768 880.667 924.702 878.4C920.635 876.067 917.402 872.833 915.002 868.7C912.668 864.567 911.502 859.7 911.502 854.1C911.502 848.433 912.668 843.533 915.002 839.4C917.402 835.267 920.635 832.067 924.702 829.8C928.768 827.533 933.335 826.4 938.402 826.4C942.935 826.4 946.902 827.4 950.302 829.4C953.702 831.4 956.335 834.433 958.202 838.5C960.068 842.567 961.002 847.767 961.002 854.1C961.002 860.367 960.102 865.567 958.302 869.7C956.502 873.767 953.902 876.8 950.502 878.8C947.168 880.8 943.135 881.8 938.402 881.8ZM941.102 869C943.635 869 945.935 868.4 948.002 867.2C950.068 866 951.702 864.3 952.902 862.1C954.168 859.833 954.802 857.167 954.802 854.1C954.802 850.967 954.168 848.3 952.902 846.1C951.702 843.9 950.068 842.2 948.002 841C945.935 839.8 943.635 839.2 941.102 839.2C938.502 839.2 936.168 839.8 934.102 841C932.035 842.2 930.368 843.9 929.102 846.1C927.902 848.3 927.302 850.967 927.302 854.1C927.302 857.167 927.902 859.833 929.102 862.1C930.368 864.3 932.035 866 934.102 867.2C936.168 868.4 938.502 869 941.102 869ZM955.202 881V870L955.502 854L954.502 838.1V806.8H970.102V881H955.202ZM984.54 881V827.2H1000.14V881H984.54ZM992.34 819.7C989.473 819.7 987.14 818.867 985.34 817.2C983.54 815.533 982.64 813.467 982.64 811C982.64 808.533 983.54 806.467 985.34 804.8C987.14 803.133 989.473 802.3 992.34 802.3C995.207 802.3 997.54 803.1 999.34 804.7C1001.14 806.233 1002.04 808.233 1002.04 810.7C1002.04 813.3 1001.14 815.467 999.34 817.2C997.607 818.867 995.273 819.7 992.34 819.7ZM1047.32 826.4C1051.58 826.4 1055.38 827.267 1058.72 829C1062.12 830.667 1064.78 833.267 1066.72 836.8C1068.65 840.267 1069.62 844.733 1069.62 850.2V881H1054.02V852.6C1054.02 848.267 1053.05 845.067 1051.12 843C1049.25 840.933 1046.58 839.9 1043.12 839.9C1040.65 839.9 1038.42 840.433 1036.42 841.5C1034.48 842.5 1032.95 844.067 1031.82 846.2C1030.75 848.333 1030.22 851.067 1030.22 854.4V881H1014.62V827.2H1029.52V842.1L1026.72 837.6C1028.65 834 1031.42 831.233 1035.02 829.3C1038.62 827.367 1042.72 826.4 1047.32 826.4ZM1109.45 901.2C1104.38 901.2 1099.48 900.567 1094.75 899.3C1090.08 898.1 1086.18 896.267 1083.05 893.8L1089.25 882.6C1091.52 884.467 1094.38 885.933 1097.85 887C1101.38 888.133 1104.85 888.7 1108.25 888.7C1113.78 888.7 1117.78 887.467 1120.25 885C1122.78 882.533 1124.05 878.867 1124.05 874V865.9L1125.05 852.4L1124.85 838.8V827.2H1139.65V872C1139.65 882 1137.05 889.367 1131.85 894.1C1126.65 898.833 1119.18 901.2 1109.45 901.2ZM1107.05 878.4C1102.05 878.4 1097.52 877.333 1093.45 875.2C1089.45 873 1086.22 869.967 1083.75 866.1C1081.35 862.167 1080.15 857.6 1080.15 852.4C1080.15 847.133 1081.35 842.567 1083.75 838.7C1086.22 834.767 1089.45 831.733 1093.45 829.6C1097.52 827.467 1102.05 826.4 1107.05 826.4C1111.58 826.4 1115.58 827.333 1119.05 829.2C1122.52 831 1125.22 833.833 1127.15 837.7C1129.08 841.5 1130.05 846.4 1130.05 852.4C1130.05 858.333 1129.08 863.233 1127.15 867.1C1125.22 870.9 1122.52 873.733 1119.05 875.6C1115.58 877.467 1111.58 878.4 1107.05 878.4ZM1110.15 865.6C1112.88 865.6 1115.32 865.067 1117.45 864C1119.58 862.867 1121.25 861.3 1122.45 859.3C1123.65 857.3 1124.25 855 1124.25 852.4C1124.25 849.733 1123.65 847.433 1122.45 845.5C1121.25 843.5 1119.58 841.967 1117.45 840.9C1115.32 839.767 1112.88 839.2 1110.15 839.2C1107.42 839.2 1104.98 839.767 1102.85 840.9C1100.72 841.967 1099.02 843.5 1097.75 845.5C1096.55 847.433 1095.95 849.733 1095.95 852.4C1095.95 855 1096.55 857.3 1097.75 859.3C1099.02 861.3 1100.72 862.867 1102.85 864C1104.98 865.067 1107.42 865.6 1110.15 865.6ZM1180.49 859.1V846.6H1208.79V859.1H1180.49ZM1281.58 882.2C1271.65 882.2 1263.88 879.433 1258.28 873.9C1252.68 868.367 1249.88 860.467 1249.88 850.2V811H1266.08V849.6C1266.08 856.267 1267.45 861.067 1270.18 864C1272.92 866.933 1276.75 868.4 1281.68 868.4C1286.62 868.4 1290.45 866.933 1293.18 864C1295.92 861.067 1297.28 856.267 1297.28 849.6V811H1313.28V850.2C1313.28 860.467 1310.48 868.367 1304.88 873.9C1299.28 879.433 1291.52 882.2 1281.58 882.2ZM1360.89 826.4C1365.16 826.4 1368.96 827.267 1372.29 829C1375.69 830.667 1378.36 833.267 1380.29 836.8C1382.23 840.267 1383.19 844.733 1383.19 850.2V881H1367.59V852.6C1367.59 848.267 1366.63 845.067 1364.69 843C1362.83 840.933 1360.16 839.9 1356.69 839.9C1354.23 839.9 1351.99 840.433 1349.99 841.5C1348.06 842.5 1346.53 844.067 1345.39 846.2C1344.33 848.333 1343.79 851.067 1343.79 854.4V881H1328.19V827.2H1343.09V842.1L1340.29 837.6C1342.23 834 1344.99 831.233 1348.59 829.3C1352.19 827.367 1356.29 826.4 1360.89 826.4ZM1397.33 881V827.2H1412.93V881H1397.33ZM1405.13 819.7C1402.27 819.7 1399.93 818.867 1398.13 817.2C1396.33 815.533 1395.43 813.467 1395.43 811C1395.43 808.533 1396.33 806.467 1398.13 804.8C1399.93 803.133 1402.27 802.3 1405.13 802.3C1408 802.3 1410.33 803.1 1412.13 804.7C1413.93 806.233 1414.83 808.233 1414.83 810.7C1414.83 813.3 1413.93 815.467 1412.13 817.2C1410.4 818.867 1408.07 819.7 1405.13 819.7ZM1462.31 882.2C1456.78 882.2 1451.68 881.333 1447.01 879.6C1442.41 877.8 1438.38 875.267 1434.91 872C1431.51 868.733 1428.84 864.9 1426.91 860.5C1425.04 856.1 1424.11 851.267 1424.11 846C1424.11 840.733 1425.04 835.9 1426.91 831.5C1428.84 827.1 1431.54 823.267 1435.01 820C1438.48 816.733 1442.54 814.233 1447.21 812.5C1451.88 810.7 1457.01 809.8 1462.61 809.8C1468.81 809.8 1474.38 810.833 1479.31 812.9C1484.31 814.967 1488.51 817.967 1491.91 821.9L1481.51 831.5C1478.98 828.833 1476.21 826.867 1473.21 825.6C1470.21 824.267 1466.94 823.6 1463.41 823.6C1460.01 823.6 1456.91 824.133 1454.11 825.2C1451.31 826.267 1448.88 827.8 1446.81 829.8C1444.81 831.8 1443.24 834.167 1442.11 836.9C1441.04 839.633 1440.51 842.667 1440.51 846C1440.51 849.267 1441.04 852.267 1442.11 855C1443.24 857.733 1444.81 860.133 1446.81 862.2C1448.88 864.2 1451.28 865.733 1454.01 866.8C1456.81 867.867 1459.88 868.4 1463.21 868.4C1466.41 868.4 1469.51 867.9 1472.51 866.9C1475.58 865.833 1478.54 864.067 1481.41 861.6L1490.61 873.3C1486.81 876.167 1482.38 878.367 1477.31 879.9C1472.31 881.433 1467.31 882.2 1462.31 882.2ZM1475.81 871.2V844.9H1490.61V873.3L1475.81 871.2ZM1531.26 881.8C1525.13 881.8 1519.73 880.6 1515.06 878.2C1510.46 875.8 1506.89 872.533 1504.36 868.4C1501.83 864.2 1500.56 859.433 1500.56 854.1C1500.56 848.7 1501.79 843.933 1504.26 839.8C1506.79 835.6 1510.23 832.333 1514.56 830C1518.89 827.6 1523.79 826.4 1529.26 826.4C1534.53 826.4 1539.26 827.533 1543.46 829.8C1547.73 832 1551.09 835.2 1553.56 839.4C1556.03 843.533 1557.26 848.5 1557.26 854.3C1557.26 854.9 1557.23 855.6 1557.16 856.4C1557.09 857.133 1557.03 857.833 1556.96 858.5H1513.26V849.4H1548.76L1542.76 852.1C1542.76 849.3 1542.19 846.867 1541.06 844.8C1539.93 842.733 1538.36 841.133 1536.36 840C1534.36 838.8 1532.03 838.2 1529.36 838.2C1526.69 838.2 1524.33 838.8 1522.26 840C1520.26 841.133 1518.69 842.767 1517.56 844.9C1516.43 846.967 1515.86 849.433 1515.86 852.3V854.7C1515.86 857.633 1516.49 860.233 1517.76 862.5C1519.09 864.7 1520.93 866.4 1523.26 867.6C1525.66 868.733 1528.46 869.3 1531.66 869.3C1534.53 869.3 1537.03 868.867 1539.16 868C1541.36 867.133 1543.36 865.833 1545.16 864.1L1553.46 873.1C1550.99 875.9 1547.89 878.067 1544.16 879.6C1540.43 881.067 1536.13 881.8 1531.26 881.8Z" fill="#FF2E2E"/>
</svg>
