<svg width="1920" height="1080" viewBox="0 0 1920 1080" fill="none" xmlns="http://www.w3.org/2000/svg">
<path d="M0 0H1920V1080H0V0Z" fill="#10131C"/>
<path d="M235 496.25C245.667 498.75 253.917 503.917 259.75 511.75C265.75 519.417 268.75 528.333 268.75 538.5C268.75 554 263.583 566 253.25 574.5C243.083 582.833 228.417 587 209.25 587H116.5V410H206.75C224.75 410 238.917 413.917 249.25 421.75C259.583 429.583 264.75 441 264.75 456C264.75 466.333 262 475.083 256.5 482.25C251.167 489.25 244 493.917 235 496.25ZM172 479H193.5C198.5 479 202.167 478 204.5 476C207 474 208.25 470.917 208.25 466.75C208.25 462.417 207 459.25 204.5 457.25C202.167 455.083 198.5 454 193.5 454H172V479ZM197.25 542.5C202.25 542.5 205.917 541.583 208.25 539.75C210.75 537.75 212 534.583 212 530.25C212 521.75 207.083 517.5 197.25 517.5H172V542.5H197.25Z" fill="white"/>
<path d="M400.898 560.25H341.898L333.148 587H274.898L339.648 410H403.648L468.148 587H409.648L400.898 560.25ZM387.398 518.5L371.398 469.25L355.398 518.5H387.398Z" fill="white"/>
<path d="M550.008 588.75C528.841 588.75 511.341 583.833 497.508 574C483.841 564 476.424 549.417 475.258 530.25H534.258C535.091 540.417 539.591 545.5 547.758 545.5C550.758 545.5 553.258 544.833 555.258 543.5C557.424 542 558.508 539.75 558.508 536.75C558.508 532.583 556.258 529.25 551.758 526.75C547.258 524.083 540.258 521.083 530.758 517.75C519.424 513.75 510.008 509.833 502.508 506C495.174 502.167 488.841 496.583 483.508 489.25C478.174 481.917 475.591 472.5 475.758 461C475.758 449.5 478.674 439.75 484.508 431.75C490.508 423.583 498.591 417.417 508.758 413.25C519.091 409.083 530.674 407 543.508 407C565.174 407 582.341 412 595.008 422C607.841 432 614.591 446.083 615.258 464.25H555.508C555.341 459.25 554.091 455.667 551.758 453.5C549.424 451.333 546.591 450.25 543.258 450.25C540.924 450.25 539.008 451.083 537.508 452.75C536.008 454.25 535.258 456.417 535.258 459.25C535.258 463.25 537.424 466.583 541.758 469.25C546.258 471.75 553.341 474.833 563.008 478.5C574.174 482.667 583.341 486.667 590.508 490.5C597.841 494.333 604.174 499.667 609.508 506.5C614.841 513.333 617.508 521.917 617.508 532.25C617.508 543.083 614.841 552.833 609.508 561.5C604.174 570 596.424 576.667 586.258 581.5C576.091 586.333 564.008 588.75 550.008 588.75Z" fill="white"/>
<path d="M632.008 498.25C632.008 480.75 635.508 465.167 642.508 451.5C649.674 437.833 659.841 427.25 673.008 419.75C686.174 412.083 701.674 408.25 719.508 408.25C734.841 408.25 748.508 411.167 760.508 417C772.674 422.667 782.508 430.75 790.008 441.25C797.674 451.75 802.758 464 805.258 478H746.758C744.091 472.167 740.258 467.667 735.258 464.5C730.424 461.167 724.841 459.5 718.508 459.5C709.174 459.5 701.758 463 696.258 470C690.924 477 688.258 486.417 688.258 498.25C688.258 510.083 690.924 519.5 696.258 526.5C701.758 533.5 709.174 537 718.508 537C724.841 537 730.424 535.417 735.258 532.25C740.258 528.917 744.091 524.333 746.758 518.5H805.258C802.758 532.5 797.674 544.75 790.008 555.25C782.508 565.75 772.674 573.917 760.508 579.75C748.508 585.417 734.841 588.25 719.508 588.25C701.674 588.25 686.174 584.5 673.008 577C659.841 569.333 649.674 558.667 642.508 545C635.508 531.333 632.008 515.75 632.008 498.25Z" fill="white"/>
<path d="M138.08 708.28C140.107 708.6 141.947 709.427 143.6 710.76C145.307 712.093 146.64 713.747 147.6 715.72C148.613 717.693 149.12 719.8 149.12 722.04C149.12 724.867 148.4 727.427 146.96 729.72C145.52 731.96 143.413 733.747 140.64 735.08C137.92 736.36 134.693 737 130.96 737H110.16V681.24H130.16C133.947 681.24 137.173 681.88 139.84 683.16C142.507 684.387 144.507 686.067 145.84 688.2C147.173 690.333 147.84 692.733 147.84 695.4C147.84 698.707 146.933 701.453 145.12 703.64C143.36 705.773 141.013 707.32 138.08 708.28ZM117.44 705.32H129.68C133.093 705.32 135.733 704.52 137.6 702.92C139.467 701.32 140.4 699.107 140.4 696.28C140.4 693.453 139.467 691.24 137.6 689.64C135.733 688.04 133.04 687.24 129.52 687.24H117.44V705.32ZM130.32 731C133.947 731 136.773 730.147 138.8 728.44C140.827 726.733 141.84 724.36 141.84 721.32C141.84 718.227 140.773 715.8 138.64 714.04C136.507 712.227 133.653 711.32 130.08 711.32H117.44V731H130.32Z" fill="white"/>
<path d="M162.982 686.04C161.596 686.04 160.422 685.56 159.462 684.6C158.502 683.64 158.023 682.467 158.023 681.08C158.023 679.693 158.502 678.52 159.462 677.56C160.422 676.6 161.596 676.12 162.982 676.12C164.316 676.12 165.436 676.6 166.342 677.56C167.302 678.52 167.783 679.693 167.783 681.08C167.783 682.467 167.302 683.64 166.342 684.6C165.436 685.56 164.316 686.04 162.982 686.04ZM166.503 693.16V737H159.223V693.16H166.503Z" fill="white"/>
<path d="M200.27 692.36C205.603 692.36 209.923 693.987 213.23 697.24C216.537 700.44 218.19 705.08 218.19 711.16V737H210.99V712.2C210.99 707.827 209.897 704.493 207.71 702.2C205.523 699.853 202.537 698.68 198.75 698.68C194.91 698.68 191.843 699.88 189.55 702.28C187.31 704.68 186.19 708.173 186.19 712.76V737H178.91V693.16H186.19V699.4C187.63 697.16 189.577 695.427 192.03 694.2C194.537 692.973 197.283 692.36 200.27 692.36Z" fill="white"/>
<path d="M227.362 714.92C227.362 710.44 228.269 706.52 230.082 703.16C231.895 699.747 234.375 697.107 237.522 695.24C240.722 693.373 244.269 692.44 248.162 692.44C252.002 692.44 255.335 693.267 258.162 694.92C260.989 696.573 263.095 698.653 264.482 701.16V693.16H271.842V737H264.482V728.84C263.042 731.4 260.882 733.533 258.002 735.24C255.175 736.893 251.869 737.72 248.082 737.72C244.189 737.72 240.669 736.76 237.522 734.84C234.375 732.92 231.895 730.227 230.082 726.76C228.269 723.293 227.362 719.347 227.362 714.92ZM264.482 715C264.482 711.693 263.815 708.813 262.482 706.36C261.149 703.907 259.335 702.04 257.042 700.76C254.802 699.427 252.322 698.76 249.602 698.76C246.882 698.76 244.402 699.4 242.162 700.68C239.922 701.96 238.135 703.827 236.802 706.28C235.469 708.733 234.802 711.613 234.802 714.92C234.802 718.28 235.469 721.213 236.802 723.72C238.135 726.173 239.922 728.067 242.162 729.4C244.402 730.68 246.882 731.32 249.602 731.32C252.322 731.32 254.802 730.68 257.042 729.4C259.335 728.067 261.149 726.173 262.482 723.72C263.815 721.213 264.482 718.307 264.482 715Z" fill="white"/>
<path d="M291.424 700.28C292.704 697.773 294.518 695.827 296.864 694.44C299.264 693.053 302.171 692.36 305.584 692.36V699.88H303.664C295.504 699.88 291.424 704.307 291.424 713.16V737H284.144V693.16H291.424V700.28Z" fill="white"/>
<path d="M351.748 693.16L325.348 757.64H317.828L326.468 736.52L308.788 693.16H316.868L330.628 728.68L344.228 693.16H351.748Z" fill="white"/>
<path d="M413.354 724.6H389.034L384.554 737H376.874L397.034 681.56H405.434L425.514 737H417.834L413.354 724.6ZM411.274 718.68L401.194 690.52L391.114 718.68H411.274Z" fill="white"/>
<path d="M455.661 692.36C460.994 692.36 465.314 693.987 468.621 697.24C471.927 700.44 473.581 705.08 473.581 711.16V737H466.381V712.2C466.381 707.827 465.287 704.493 463.101 702.2C460.914 699.853 457.927 698.68 454.141 698.68C450.301 698.68 447.234 699.88 444.941 702.28C442.701 704.68 441.581 708.173 441.581 712.76V737H434.301V693.16H441.581V699.4C443.021 697.16 444.967 695.427 447.421 694.2C449.927 692.973 452.674 692.36 455.661 692.36Z" fill="white"/>
<path d="M482.753 714.92C482.753 710.44 483.659 706.52 485.473 703.16C487.286 699.747 489.766 697.107 492.913 695.24C496.113 693.373 499.659 692.44 503.552 692.44C507.392 692.44 510.726 693.267 513.552 694.92C516.379 696.573 518.486 698.653 519.872 701.16V693.16H527.232V737H519.872V728.84C518.432 731.4 516.273 733.533 513.393 735.24C510.566 736.893 507.259 737.72 503.473 737.72C499.579 737.72 496.059 736.76 492.913 734.84C489.766 732.92 487.286 730.227 485.473 726.76C483.659 723.293 482.753 719.347 482.753 714.92ZM519.872 715C519.872 711.693 519.206 708.813 517.872 706.36C516.539 703.907 514.726 702.04 512.432 700.76C510.192 699.427 507.712 698.76 504.992 698.76C502.272 698.76 499.792 699.4 497.552 700.68C495.312 701.96 493.526 703.827 492.193 706.28C490.859 708.733 490.193 711.613 490.193 714.92C490.193 718.28 490.859 721.213 492.193 723.72C493.526 726.173 495.312 728.067 497.552 729.4C499.792 730.68 502.272 731.32 504.992 731.32C507.712 731.32 510.192 730.68 512.432 729.4C514.726 728.067 516.539 726.173 517.872 723.72C519.206 721.213 519.872 718.307 519.872 715Z" fill="white"/>
<path d="M546.815 677.8V737H539.535V677.8H546.815Z" fill="white"/>
<path d="M596.982 693.16L570.583 757.64H563.062L571.703 736.52L554.023 693.16H562.102L575.862 728.68L589.463 693.16H596.982Z" fill="white"/>
<path d="M619.821 737.72C616.461 737.72 613.447 737.16 610.781 736.04C608.114 734.867 606.007 733.267 604.461 731.24C602.914 729.16 602.061 726.787 601.901 724.12H609.421C609.634 726.307 610.647 728.093 612.461 729.48C614.327 730.867 616.754 731.56 619.741 731.56C622.514 731.56 624.701 730.947 626.301 729.72C627.901 728.493 628.701 726.947 628.701 725.08C628.701 723.16 627.847 721.747 626.141 720.84C624.434 719.88 621.794 718.947 618.221 718.04C614.967 717.187 612.301 716.333 610.221 715.48C608.194 714.573 606.434 713.267 604.941 711.56C603.501 709.8 602.781 707.507 602.781 704.68C602.781 702.44 603.447 700.387 604.781 698.52C606.114 696.653 608.007 695.187 610.461 694.12C612.914 693 615.714 692.44 618.861 692.44C623.714 692.44 627.634 693.667 630.621 696.12C633.607 698.573 635.207 701.933 635.421 706.2H628.141C627.981 703.907 627.047 702.067 625.341 700.68C623.687 699.293 621.447 698.6 618.621 698.6C616.007 698.6 613.927 699.16 612.381 700.28C610.834 701.4 610.061 702.867 610.061 704.68C610.061 706.12 610.514 707.32 611.421 708.28C612.381 709.187 613.554 709.933 614.941 710.52C616.381 711.053 618.354 711.667 620.861 712.36C624.007 713.213 626.567 714.067 628.541 714.92C630.514 715.72 632.194 716.947 633.581 718.6C635.021 720.253 635.767 722.413 635.821 725.08C635.821 727.48 635.154 729.64 633.821 731.56C632.487 733.48 630.594 735 628.141 736.12C625.741 737.187 622.967 737.72 619.821 737.72Z" fill="white"/>
<path d="M649.857 686.04C648.471 686.04 647.298 685.56 646.338 684.6C645.378 683.64 644.898 682.467 644.898 681.08C644.898 679.693 645.378 678.52 646.338 677.56C647.298 676.6 648.471 676.12 649.857 676.12C651.191 676.12 652.311 676.6 653.218 677.56C654.178 678.52 654.657 679.693 654.657 681.08C654.657 682.467 654.178 683.64 653.218 684.6C652.311 685.56 651.191 686.04 649.857 686.04ZM653.378 693.16V737H646.097V693.16H653.378Z" fill="white"/>
<path d="M681.305 737.72C677.945 737.72 674.932 737.16 672.265 736.04C669.598 734.867 667.492 733.267 665.945 731.24C664.398 729.16 663.545 726.787 663.385 724.12H670.905C671.118 726.307 672.132 728.093 673.945 729.48C675.812 730.867 678.238 731.56 681.225 731.56C683.998 731.56 686.185 730.947 687.785 729.72C689.385 728.493 690.185 726.947 690.185 725.08C690.185 723.16 689.332 721.747 687.625 720.84C685.918 719.88 683.278 718.947 679.705 718.04C676.452 717.187 673.785 716.333 671.705 715.48C669.678 714.573 667.918 713.267 666.425 711.56C664.985 709.8 664.265 707.507 664.265 704.68C664.265 702.44 664.932 700.387 666.265 698.52C667.598 696.653 669.492 695.187 671.945 694.12C674.398 693 677.198 692.44 680.345 692.44C685.198 692.44 689.118 693.667 692.105 696.12C695.092 698.573 696.692 701.933 696.905 706.2H689.625C689.465 703.907 688.532 702.067 686.825 700.68C685.172 699.293 682.932 698.6 680.105 698.6C677.492 698.6 675.412 699.16 673.865 700.28C672.318 701.4 671.545 702.867 671.545 704.68C671.545 706.12 671.998 707.32 672.905 708.28C673.865 709.187 675.038 709.933 676.425 710.52C677.865 711.053 679.838 711.667 682.345 712.36C685.492 713.213 688.052 714.067 690.025 714.92C691.998 715.72 693.678 716.947 695.065 718.6C696.505 720.253 697.252 722.413 697.305 725.08C697.305 727.48 696.638 729.64 695.305 731.56C693.972 733.48 692.078 735 689.625 736.12C687.225 737.187 684.452 737.72 681.305 737.72Z" fill="white"/>
<path d="M726.19 714.92C726.19 710.44 727.097 706.52 728.91 703.16C730.723 699.747 733.203 697.107 736.35 695.24C739.55 693.373 743.097 692.44 746.99 692.44C750.83 692.44 754.163 693.267 756.99 694.92C759.817 696.573 761.923 698.653 763.31 701.16V693.16H770.67V737H763.31V728.84C761.87 731.4 759.71 733.533 756.83 735.24C754.003 736.893 750.697 737.72 746.91 737.72C743.017 737.72 739.497 736.76 736.35 734.84C733.203 732.92 730.723 730.227 728.91 726.76C727.097 723.293 726.19 719.347 726.19 714.92ZM763.31 715C763.31 711.693 762.643 708.813 761.31 706.36C759.977 703.907 758.163 702.04 755.87 700.76C753.63 699.427 751.15 698.76 748.43 698.76C745.71 698.76 743.23 699.4 740.99 700.68C738.75 701.96 736.963 703.827 735.63 706.28C734.297 708.733 733.63 711.613 733.63 714.92C733.63 718.28 734.297 721.213 735.63 723.72C736.963 726.173 738.75 728.067 740.99 729.4C743.23 730.68 745.71 731.32 748.43 731.32C751.15 731.32 753.63 730.68 755.87 729.4C758.163 728.067 759.977 726.173 761.31 723.72C762.643 721.213 763.31 718.307 763.31 715Z" fill="white"/>
<path d="M804.333 692.36C809.666 692.36 813.986 693.987 817.292 697.24C820.599 700.44 822.253 705.08 822.253 711.16V737H815.052V712.2C815.052 707.827 813.959 704.493 811.773 702.2C809.586 699.853 806.599 698.68 802.812 698.68C798.973 698.68 795.906 699.88 793.612 702.28C791.372 704.68 790.253 708.173 790.253 712.76V737H782.972V693.16H790.253V699.4C791.693 697.16 793.639 695.427 796.093 694.2C798.599 692.973 801.346 692.36 804.333 692.36Z" fill="white"/>
<path d="M831.424 714.92C831.424 710.44 832.331 706.52 834.144 703.16C835.958 699.747 838.438 697.107 841.584 695.24C844.784 693.373 848.358 692.44 852.304 692.44C855.718 692.44 858.891 693.24 861.824 694.84C864.758 696.387 866.998 698.44 868.544 701V677.8H875.904V737H868.544V728.76C867.104 731.373 864.971 733.533 862.144 735.24C859.318 736.893 856.011 737.72 852.224 737.72C848.331 737.72 844.784 736.76 841.584 734.84C838.438 732.92 835.958 730.227 834.144 726.76C832.331 723.293 831.424 719.347 831.424 714.92ZM868.544 715C868.544 711.693 867.878 708.813 866.544 706.36C865.211 703.907 863.398 702.04 861.104 700.76C858.864 699.427 856.384 698.76 853.664 698.76C850.944 698.76 848.464 699.4 846.224 700.68C843.984 701.96 842.198 703.827 840.864 706.28C839.531 708.733 838.864 711.613 838.864 714.92C838.864 718.28 839.531 721.213 840.864 723.72C842.198 726.173 843.984 728.067 846.224 729.4C848.464 730.68 850.944 731.32 853.664 731.32C856.384 731.32 858.864 730.68 861.104 729.4C863.398 728.067 865.211 726.173 866.544 723.72C867.878 721.213 868.544 718.307 868.544 715Z" fill="white"/>
<path d="M927.215 737.56C923.535 737.56 920.228 736.92 917.295 735.64C914.415 734.307 912.148 732.493 910.495 730.2C908.842 727.853 907.988 725.16 907.935 722.12H915.695C915.962 724.733 917.028 726.947 918.895 728.76C920.815 730.52 923.588 731.4 927.215 731.4C930.682 731.4 933.402 730.547 935.375 728.84C937.402 727.08 938.415 724.84 938.415 722.12C938.415 719.987 937.828 718.253 936.655 716.92C935.482 715.587 934.015 714.573 932.255 713.88C930.495 713.187 928.122 712.44 925.135 711.64C921.455 710.68 918.495 709.72 916.255 708.76C914.068 707.8 912.175 706.307 910.575 704.28C909.028 702.2 908.255 699.427 908.255 695.96C908.255 692.92 909.028 690.227 910.575 687.88C912.122 685.533 914.282 683.72 917.055 682.44C919.882 681.16 923.108 680.52 926.735 680.52C931.962 680.52 936.228 681.827 939.535 684.44C942.895 687.053 944.788 690.52 945.215 694.84H937.215C936.948 692.707 935.828 690.84 933.855 689.24C931.882 687.587 929.268 686.76 926.015 686.76C922.975 686.76 920.495 687.56 918.575 689.16C916.655 690.707 915.695 692.893 915.695 695.72C915.695 697.747 916.255 699.4 917.375 700.68C918.548 701.96 919.962 702.947 921.615 703.64C923.322 704.28 925.695 705.027 928.735 705.88C932.415 706.893 935.375 707.907 937.615 708.92C939.855 709.88 941.775 711.4 943.375 713.48C944.975 715.507 945.775 718.28 945.775 721.8C945.775 724.52 945.055 727.08 943.615 729.48C942.175 731.88 940.042 733.827 937.215 735.32C934.388 736.813 931.055 737.56 927.215 737.56Z" fill="white"/>
<path d="M996.488 713.4C996.488 714.787 996.408 716.253 996.248 717.8H961.208C961.475 722.12 962.941 725.507 965.608 727.96C968.328 730.36 971.608 731.56 975.448 731.56C978.595 731.56 981.208 730.84 983.288 729.4C985.421 727.907 986.915 725.933 987.768 723.48H995.608C994.435 727.693 992.088 731.133 988.568 733.8C985.048 736.413 980.675 737.72 975.448 737.72C971.288 737.72 967.555 736.787 964.248 734.92C960.995 733.053 958.435 730.413 956.568 727C954.701 723.533 953.768 719.533 953.768 715C953.768 710.467 954.675 706.493 956.488 703.08C958.301 699.667 960.835 697.053 964.088 695.24C967.395 693.373 971.181 692.44 975.448 692.44C979.608 692.44 983.288 693.347 986.488 695.16C989.688 696.973 992.141 699.48 993.848 702.68C995.608 705.827 996.488 709.4 996.488 713.4ZM988.968 711.88C988.968 709.107 988.355 706.733 987.128 704.76C985.901 702.733 984.221 701.213 982.088 700.2C980.008 699.133 977.688 698.6 975.128 698.6C971.448 698.6 968.301 699.773 965.688 702.12C963.128 704.467 961.661 707.72 961.288 711.88H988.968Z" fill="white"/>
<path d="M1003.38 715C1003.38 710.467 1004.28 706.52 1006.1 703.16C1007.91 699.747 1010.42 697.107 1013.62 695.24C1016.87 693.373 1020.58 692.44 1024.74 692.44C1030.12 692.44 1034.55 693.747 1038.02 696.36C1041.54 698.973 1043.86 702.6 1044.98 707.24H1037.14C1036.39 704.573 1034.92 702.467 1032.74 700.92C1030.6 699.373 1027.94 698.6 1024.74 698.6C1020.58 698.6 1017.22 700.04 1014.66 702.92C1012.1 705.747 1010.82 709.773 1010.82 715C1010.82 720.28 1012.1 724.36 1014.66 727.24C1017.22 730.12 1020.58 731.56 1024.74 731.56C1027.94 731.56 1030.6 730.813 1032.74 729.32C1034.87 727.827 1036.34 725.693 1037.14 722.92H1044.98C1043.8 727.4 1041.46 731 1037.94 733.72C1034.42 736.387 1030.02 737.72 1024.74 737.72C1020.58 737.72 1016.87 736.787 1013.62 734.92C1010.42 733.053 1007.91 730.413 1006.1 727C1004.28 723.587 1003.38 719.587 1003.38 715Z" fill="white"/>
<path d="M1093.57 693.16V737H1086.29V730.52C1084.9 732.76 1082.96 734.52 1080.45 735.8C1078 737.027 1075.28 737.64 1072.29 737.64C1068.88 737.64 1065.81 736.947 1063.09 735.56C1060.37 734.12 1058.21 731.987 1056.61 729.16C1055.06 726.333 1054.29 722.893 1054.29 718.84V693.16H1061.49V717.88C1061.49 722.2 1062.58 725.533 1064.77 727.88C1066.96 730.173 1069.94 731.32 1073.73 731.32C1077.62 731.32 1080.69 730.12 1082.93 727.72C1085.17 725.32 1086.29 721.827 1086.29 717.24V693.16H1093.57Z" fill="white"/>
<path d="M1113.14 700.28C1114.42 697.773 1116.24 695.827 1118.58 694.44C1120.98 693.053 1123.89 692.36 1127.3 692.36V699.88H1125.38C1117.22 699.88 1113.14 704.307 1113.14 713.16V737H1105.86V693.16H1113.14V700.28Z" fill="white"/>
<path d="M1175.71 713.4C1175.71 714.787 1175.63 716.253 1175.47 717.8H1140.43C1140.69 722.12 1142.16 725.507 1144.83 727.96C1147.55 730.36 1150.83 731.56 1154.67 731.56C1157.81 731.56 1160.43 730.84 1162.51 729.4C1164.64 727.907 1166.13 725.933 1166.99 723.48H1174.83C1173.65 727.693 1171.31 731.133 1167.79 733.8C1164.27 736.413 1159.89 737.72 1154.67 737.72C1150.51 737.72 1146.77 736.787 1143.47 734.92C1140.21 733.053 1137.65 730.413 1135.79 727C1133.92 723.533 1132.99 719.533 1132.99 715C1132.99 710.467 1133.89 706.493 1135.71 703.08C1137.52 699.667 1140.05 697.053 1143.31 695.24C1146.61 693.373 1150.4 692.44 1154.67 692.44C1158.83 692.44 1162.51 693.347 1165.71 695.16C1168.91 696.973 1171.36 699.48 1173.07 702.68C1174.83 705.827 1175.71 709.4 1175.71 713.4ZM1168.19 711.88C1168.19 709.107 1167.57 706.733 1166.35 704.76C1165.12 702.733 1163.44 701.213 1161.31 700.2C1159.23 699.133 1156.91 698.6 1154.35 698.6C1150.67 698.6 1147.52 699.773 1144.91 702.12C1142.35 704.467 1140.88 707.72 1140.51 711.88H1168.19Z" fill="white"/>
<path d="M1203.92 709.08C1203.92 703.64 1205.15 698.76 1207.6 694.44C1210.06 690.067 1213.39 686.653 1217.6 684.2C1221.87 681.747 1226.59 680.52 1231.76 680.52C1237.84 680.52 1243.15 681.987 1247.68 684.92C1252.22 687.853 1255.52 692.013 1257.6 697.4H1248.88C1247.34 694.04 1245.1 691.453 1242.16 689.64C1239.28 687.827 1235.82 686.92 1231.76 686.92C1227.87 686.92 1224.38 687.827 1221.28 689.64C1218.19 691.453 1215.76 694.04 1214 697.4C1212.24 700.707 1211.36 704.6 1211.36 709.08C1211.36 713.507 1212.24 717.4 1214 720.76C1215.76 724.067 1218.19 726.627 1221.28 728.44C1224.38 730.253 1227.87 731.16 1231.76 731.16C1235.82 731.16 1239.28 730.28 1242.16 728.52C1245.1 726.707 1247.34 724.12 1248.88 720.76H1257.6C1255.52 726.093 1252.22 730.227 1247.68 733.16C1243.15 736.04 1237.84 737.48 1231.76 737.48C1226.59 737.48 1221.87 736.28 1217.6 733.88C1213.39 731.427 1210.06 728.04 1207.6 723.72C1205.15 719.4 1203.92 714.52 1203.92 709.08Z" fill="white"/>
<path d="M1287.56 737.72C1283.45 737.72 1279.72 736.787 1276.36 734.92C1273.05 733.053 1270.44 730.413 1268.52 727C1266.65 723.533 1265.72 719.533 1265.72 715C1265.72 710.52 1266.68 706.573 1268.6 703.16C1270.57 699.693 1273.24 697.053 1276.6 695.24C1279.96 693.373 1283.72 692.44 1287.88 692.44C1292.04 692.44 1295.8 693.373 1299.16 695.24C1302.52 697.053 1305.16 699.667 1307.08 703.08C1309.05 706.493 1310.04 710.467 1310.04 715C1310.04 719.533 1309.03 723.533 1307 727C1305.03 730.413 1302.33 733.053 1298.92 734.92C1295.51 736.787 1291.72 737.72 1287.56 737.72ZM1287.56 731.32C1290.17 731.32 1292.63 730.707 1294.92 729.48C1297.21 728.253 1299.05 726.413 1300.44 723.96C1301.88 721.507 1302.6 718.52 1302.6 715C1302.6 711.48 1301.91 708.493 1300.52 706.04C1299.13 703.587 1297.32 701.773 1295.08 700.6C1292.84 699.373 1290.41 698.76 1287.8 698.76C1285.13 698.76 1282.68 699.373 1280.44 700.6C1278.25 701.773 1276.49 703.587 1275.16 706.04C1273.83 708.493 1273.16 711.48 1273.16 715C1273.16 718.573 1273.8 721.587 1275.08 724.04C1276.41 726.493 1278.17 728.333 1280.36 729.56C1282.55 730.733 1284.95 731.32 1287.56 731.32Z" fill="white"/>
<path d="M1316.89 714.92C1316.89 710.44 1317.8 706.52 1319.61 703.16C1321.43 699.747 1323.91 697.107 1327.05 695.24C1330.25 693.373 1333.83 692.44 1337.77 692.44C1341.19 692.44 1344.36 693.24 1347.29 694.84C1350.23 696.387 1352.47 698.44 1354.01 701V677.8H1361.37V737H1354.01V728.76C1352.57 731.373 1350.44 733.533 1347.61 735.24C1344.79 736.893 1341.48 737.72 1337.69 737.72C1333.8 737.72 1330.25 736.76 1327.05 734.84C1323.91 732.92 1321.43 730.227 1319.61 726.76C1317.8 723.293 1316.89 719.347 1316.89 714.92ZM1354.01 715C1354.01 711.693 1353.35 708.813 1352.01 706.36C1350.68 703.907 1348.87 702.04 1346.57 700.76C1344.33 699.427 1341.85 698.76 1339.13 698.76C1336.41 698.76 1333.93 699.4 1331.69 700.68C1329.45 701.96 1327.67 703.827 1326.33 706.28C1325 708.733 1324.33 711.613 1324.33 714.92C1324.33 718.28 1325 721.213 1326.33 723.72C1327.67 726.173 1329.45 728.067 1331.69 729.4C1333.93 730.68 1336.41 731.32 1339.13 731.32C1341.85 731.32 1344.33 730.68 1346.57 729.4C1348.87 728.067 1350.68 726.173 1352.01 723.72C1353.35 721.213 1354.01 718.307 1354.01 715Z" fill="white"/>
<path d="M1377.44 686.04C1376.05 686.04 1374.88 685.56 1373.92 684.6C1372.96 683.64 1372.48 682.467 1372.48 681.08C1372.48 679.693 1372.96 678.52 1373.92 677.56C1374.88 676.6 1376.05 676.12 1377.44 676.12C1378.77 676.12 1379.89 676.6 1380.8 677.56C1381.76 678.52 1382.24 679.693 1382.24 681.08C1382.24 682.467 1381.76 683.64 1380.8 684.6C1379.89 685.56 1378.77 686.04 1377.44 686.04ZM1380.96 693.16V737H1373.68V693.16H1380.96Z" fill="white"/>
<path d="M1414.72 692.36C1420.06 692.36 1424.38 693.987 1427.68 697.24C1430.99 700.44 1432.64 705.08 1432.64 711.16V737H1425.44V712.2C1425.44 707.827 1424.35 704.493 1422.16 702.2C1419.98 699.853 1416.99 698.68 1413.2 698.68C1409.36 698.68 1406.3 699.88 1404 702.28C1401.76 704.68 1400.64 708.173 1400.64 712.76V737H1393.36V693.16H1400.64V699.4C1402.08 697.16 1404.03 695.427 1406.48 694.2C1408.99 692.973 1411.74 692.36 1414.72 692.36Z" fill="white"/>
<path d="M1462.61 692.44C1466.4 692.44 1469.71 693.267 1472.54 694.92C1475.42 696.573 1477.55 698.653 1478.94 701.16V693.16H1486.3V737.96C1486.3 741.96 1485.44 745.507 1483.73 748.6C1482.03 751.747 1479.58 754.2 1476.38 755.96C1473.23 757.72 1469.55 758.6 1465.33 758.6C1459.57 758.6 1454.78 757.24 1450.94 754.52C1447.1 751.8 1444.83 748.093 1444.14 743.4H1451.33C1452.13 746.067 1453.79 748.2 1456.3 749.8C1458.8 751.453 1461.81 752.28 1465.33 752.28C1469.33 752.28 1472.59 751.027 1475.09 748.52C1477.65 746.013 1478.94 742.493 1478.94 737.96V728.76C1477.5 731.32 1475.36 733.453 1472.54 735.16C1469.71 736.867 1466.4 737.72 1462.61 737.72C1458.72 737.72 1455.17 736.76 1451.97 734.84C1448.83 732.92 1446.35 730.227 1444.54 726.76C1442.72 723.293 1441.81 719.347 1441.81 714.92C1441.81 710.44 1442.72 706.52 1444.54 703.16C1446.35 699.747 1448.83 697.107 1451.97 695.24C1455.17 693.373 1458.72 692.44 1462.61 692.44ZM1478.94 715C1478.94 711.693 1478.27 708.813 1476.94 706.36C1475.6 703.907 1473.79 702.04 1471.49 700.76C1469.25 699.427 1466.78 698.76 1464.06 698.76C1461.34 698.76 1458.85 699.4 1456.61 700.68C1454.37 701.96 1452.59 703.827 1451.26 706.28C1449.92 708.733 1449.26 711.613 1449.26 714.92C1449.26 718.28 1449.92 721.213 1451.26 723.72C1452.59 726.173 1454.37 728.067 1456.61 729.4C1458.85 730.68 1461.34 731.32 1464.06 731.32C1466.78 731.32 1469.25 730.68 1471.49 729.4C1473.79 728.067 1475.6 726.173 1476.94 723.72C1478.27 721.213 1478.94 718.307 1478.94 715Z" fill="white"/>
<path d="M1550.33 704.6V710.76H1518.41V704.6H1550.33Z" fill="white"/>
<path d="M1592.44 681.24V716.52C1592.44 721.48 1593.64 725.16 1596.04 727.56C1598.49 729.96 1601.88 731.16 1606.2 731.16C1610.46 731.16 1613.8 729.96 1616.2 727.56C1618.65 725.16 1619.88 721.48 1619.88 716.52V681.24H1627.16V716.44C1627.16 721.08 1626.22 725 1624.36 728.2C1622.49 731.347 1619.96 733.693 1616.76 735.24C1613.61 736.787 1610.06 737.56 1606.12 737.56C1602.17 737.56 1598.6 736.787 1595.4 735.24C1592.25 733.693 1589.74 731.347 1587.88 728.2C1586.06 725 1585.16 721.08 1585.16 716.44V681.24H1592.44Z" fill="white"/>
<path d="M1660.66 692.36C1665.99 692.36 1670.31 693.987 1673.62 697.24C1676.93 700.44 1678.58 705.08 1678.58 711.16V737H1671.38V712.2C1671.38 707.827 1670.29 704.493 1668.1 702.2C1665.91 699.853 1662.93 698.68 1659.14 698.68C1655.3 698.68 1652.23 699.88 1649.94 702.28C1647.7 704.68 1646.58 708.173 1646.58 712.76V737H1639.3V693.16H1646.58V699.4C1648.02 697.16 1649.97 695.427 1652.42 694.2C1654.93 692.973 1657.67 692.36 1660.66 692.36Z" fill="white"/>
<path d="M1694.23 686.04C1692.85 686.04 1691.67 685.56 1690.71 684.6C1689.75 683.64 1689.27 682.467 1689.27 681.08C1689.27 679.693 1689.75 678.52 1690.71 677.56C1691.67 676.6 1692.85 676.12 1694.23 676.12C1695.57 676.12 1696.69 676.6 1697.59 677.56C1698.55 678.52 1699.03 679.693 1699.03 681.08C1699.03 682.467 1698.55 683.64 1697.59 684.6C1696.69 685.56 1695.57 686.04 1694.23 686.04ZM1697.75 693.16V737H1690.47V693.16H1697.75Z" fill="white"/>
<path d="M1752.4 697.4C1750.85 694.147 1748.61 691.64 1745.68 689.88C1742.75 688.067 1739.33 687.16 1735.44 687.16C1731.55 687.16 1728.03 688.067 1724.88 689.88C1721.79 691.64 1719.33 694.2 1717.52 697.56C1715.76 700.867 1714.88 704.707 1714.88 709.08C1714.88 713.453 1715.76 717.293 1717.52 720.6C1719.33 723.907 1721.79 726.467 1724.88 728.28C1728.03 730.04 1731.55 730.92 1735.44 730.92C1740.88 730.92 1745.36 729.293 1748.88 726.04C1752.4 722.787 1754.45 718.387 1755.04 712.84H1732.8V706.92H1762.8V712.52C1762.37 717.107 1760.93 721.32 1758.48 725.16C1756.03 728.947 1752.8 731.96 1748.8 734.2C1744.8 736.387 1740.35 737.48 1735.44 737.48C1730.27 737.48 1725.55 736.28 1721.28 733.88C1717.01 731.427 1713.63 728.04 1711.12 723.72C1708.67 719.4 1707.44 714.52 1707.44 709.08C1707.44 703.64 1708.67 698.76 1711.12 694.44C1713.63 690.067 1717.01 686.68 1721.28 684.28C1725.55 681.827 1730.27 680.6 1735.44 680.6C1741.36 680.6 1746.59 682.067 1751.12 685C1755.71 687.933 1759.04 692.067 1761.12 697.4H1752.4Z" fill="white"/>
<path d="M1812.43 713.4C1812.43 714.787 1812.35 716.253 1812.19 717.8H1777.15C1777.41 722.12 1778.88 725.507 1781.55 727.96C1784.27 730.36 1787.55 731.56 1791.39 731.56C1794.53 731.56 1797.15 730.84 1799.23 729.4C1801.36 727.907 1802.85 725.933 1803.71 723.48H1811.55C1810.37 727.693 1808.03 731.133 1804.51 733.8C1800.99 736.413 1796.61 737.72 1791.39 737.72C1787.23 737.72 1783.49 736.787 1780.19 734.92C1776.93 733.053 1774.37 730.413 1772.51 727C1770.64 723.533 1769.71 719.533 1769.71 715C1769.71 710.467 1770.61 706.493 1772.43 703.08C1774.24 699.667 1776.77 697.053 1780.03 695.24C1783.33 693.373 1787.12 692.44 1791.39 692.44C1795.55 692.44 1799.23 693.347 1802.43 695.16C1805.63 696.973 1808.08 699.48 1809.79 702.68C1811.55 705.827 1812.43 709.4 1812.43 713.4ZM1804.91 711.88C1804.91 709.107 1804.29 706.733 1803.07 704.76C1801.84 702.733 1800.16 701.213 1798.03 700.2C1795.95 699.133 1793.63 698.6 1791.07 698.6C1787.39 698.6 1784.24 699.773 1781.63 702.12C1779.07 704.467 1777.6 707.72 1777.23 711.88H1804.91Z" fill="white"/>
</svg>
